<?xml version="1.0" encoding="utf-8"?>
<!-- Generator: Adobe Illustrator 24.0.3, SVG Export Plug-In . SVG Version: 6.00 Build 0)  -->
<!DOCTYPE svg PUBLIC "-//W3C//DTD SVG 1.1//EN" "http://www.w3.org/Graphics/SVG/1.1/DTD/svg11.dtd" [
	<!ENTITY ns_extend "http://ns.adobe.com/Extensibility/1.0/">
	<!ENTITY ns_ai "http://ns.adobe.com/AdobeIllustrator/10.0/">
	<!ENTITY ns_graphs "http://ns.adobe.com/Graphs/1.0/">
	<!ENTITY ns_vars "http://ns.adobe.com/Variables/1.0/">
	<!ENTITY ns_imrep "http://ns.adobe.com/ImageReplacement/1.0/">
	<!ENTITY ns_sfw "http://ns.adobe.com/SaveForWeb/1.0/">
	<!ENTITY ns_custom "http://ns.adobe.com/GenericCustomNamespace/1.0/">
	<!ENTITY ns_adobe_xpath "http://ns.adobe.com/XPath/1.0/">
]>
<svg version="1.1" id="Layer_1" xmlns:x="&ns_extend;" xmlns:i="&ns_ai;" xmlns:graph="&ns_graphs;"
	 xmlns="http://www.w3.org/2000/svg" xmlns:xlink="http://www.w3.org/1999/xlink" x="0px" y="0px" viewBox="0 0 407.3 406.9"
	 style="enable-background:new 0 0 407.3 406.9;" xml:space="preserve">
<style type="text/css">
	.st0{fill-rule:evenodd;clip-rule:evenodd;fill:#7F0000;stroke:#000000;stroke-width:4.71;stroke-linejoin:round;}
	.st1{fill-rule:evenodd;clip-rule:evenodd;fill:#5FBF00;stroke:#000000;stroke-width:6.312;}
	.st2{fill-rule:evenodd;clip-rule:evenodd;fill-opacity:0.227;}
	.st3{fill-rule:evenodd;clip-rule:evenodd;fill:#B80000;stroke:#000000;stroke-width:0.521;stroke-linejoin:round;}
	.st4{fill-rule:evenodd;clip-rule:evenodd;fill:#D69B64;stroke:#000000;stroke-width:9.421;}
	.st5{fill-rule:evenodd;clip-rule:evenodd;fill:#7B3B00;stroke:#000000;stroke-width:7.581;}
	.st6{fill:none;stroke:#6B0000;stroke-width:5;}
	.st7{fill:none;stroke:#720000;stroke-width:5;}
	.st8{fill:none;stroke:#6B0000;stroke-width:5;stroke-linecap:round;}
	.st9{fill:none;stroke:#000000;stroke-width:5;}
	.st10{fill:none;stroke:#000000;stroke-width:5;stroke-linecap:round;}
	.st11{fill-rule:evenodd;clip-rule:evenodd;fill:url(#SVGID_1_);stroke:#FFFFFF;stroke-width:1.284;}
	.st12{fill-rule:evenodd;clip-rule:evenodd;fill:#B40000;stroke:#000000;stroke-width:2.943;stroke-linejoin:round;}
	.st13{fill-rule:evenodd;clip-rule:evenodd;fill:#B50000;stroke:#000000;stroke-width:2.897;stroke-linejoin:round;}
	.st14{fill:none;stroke:#720000;stroke-width:5;stroke-linecap:round;}
	.st15{fill-rule:evenodd;clip-rule:evenodd;fill:url(#SVGID_2_);stroke:#FFFFFF;stroke-width:2.61;}
	.st16{fill-rule:evenodd;clip-rule:evenodd;fill:#B40000;stroke:#000000;stroke-width:4.471;stroke-linejoin:round;}
	.st17{fill-rule:evenodd;clip-rule:evenodd;fill:#B50000;stroke:#000000;stroke-width:4.402;stroke-linejoin:round;}
	.st18{fill-rule:evenodd;clip-rule:evenodd;}
	.st19{fill-rule:evenodd;clip-rule:evenodd;fill:#98621D;}
	.st20{fill-rule:evenodd;clip-rule:evenodd;fill:#117D00;}
	.st21{fill-rule:evenodd;clip-rule:evenodd;fill:#890000;}
	.st22{fill-rule:evenodd;clip-rule:evenodd;fill:#FF0000;}
	.st23{fill-rule:evenodd;clip-rule:evenodd;fill:url(#SVGID_3_);stroke:#FFFFFF;stroke-width:2.266;}
	.st24{fill-rule:evenodd;clip-rule:evenodd;fill:#B40000;stroke:#000000;stroke-width:3.73;stroke-linejoin:round;}
	.st25{fill-rule:evenodd;clip-rule:evenodd;fill:#B50000;stroke:#000000;stroke-width:3.673;stroke-linejoin:round;}
	.st26{fill-rule:evenodd;clip-rule:evenodd;fill:#BF5F00;stroke:#000000;stroke-width:5;}
	.st27{fill:none;stroke:#FFFFFF;stroke-width:5;}
	.st28{fill:none;stroke:#FFFFFF;stroke-width:4.986;}
	.st29{fill:none;stroke:#FFFFFF;stroke-width:4.358;}
</style>
<metadata>
	<sfw  xmlns="&ns_sfw;">
		<slices></slices>
		<sliceSourceBounds  bottomLeftOrigin="true" height="406.9" width="407.3" x="22.9" y="47.6"></sliceSourceBounds>
	</sfw>
</metadata>
<g>
	<g>
		<path class="st0" d="M21.7,167.8C-36.3,149.7,152.5,29,164.3,10.3c9.3-17,12.4,7.3,30.4,7c15.2-1.2,37.8-31.1,42.3-2.9
			c3.3,21.8,219.4,127.2,156.4,154.1C359.1,146.9,229.2,67.3,199.7,44.2C171.3,62.1,45,152.3,21.7,167.8L21.7,167.8z"/>
		<path class="st1" d="M4.7,376.5c24.7,16.9,69.1,21.2,81.4,22.3c83.6,4.6,235.1,13.5,307.9-17c-1.7-44-41.1-100.9-56.2-77.7
			c-17.5-13.7-5.6-10.3-10-10.3c-40.3-26.2-230.4-19.6-272.1,2.3C36.6,279,25.4,322.9,4.7,376.5L4.7,376.5z"/>
	</g>
	<path class="st2" d="M57.5,344.4c5.9,11.8-25.8,40.9-14.8,46c125.7-12.3,163.9-20.4,233.1,2.7c8-5.6,77.1-47.4,60.7-51.5
		C311.2,338,158.3,337,57.5,344.4L57.5,344.4z"/>
	<g>
		<path class="st3" d="M138.5,281.2c1.5,7.5,1,48.7-0.4,61.4c-7.8,2.6-33.6,2.7-44.6,0.6c0-8.6-0.2-56.4,0.5-62.1
			C100,282,135.2,280.7,138.5,281.2L138.5,281.2z"/>
		<path class="st4" d="M55.8,324.3c0-17.6,2.5-46.6,2.5-57.7c0-6.1-8.4-106.6-8.4-112.6c0-2.2,140.4-107.8,146-107.8
			c70.5,45.3,161.2,101.9,168.3,111.6c1.8,3.5-31,151.8-31,162.8c0,3.8-0.1,12.1-0.6,20c-12.5-0.6-188,0.7-193.3-0.6
			c-2.2-13.8,3.3-56.6,1.6-59.7c-3-4.8-41.4-5.2-49.4-2c-4,1.6,5,63.5-0.8,63.5H57.1C55.5,341.1,55.8,329.3,55.8,324.3L55.8,324.3z"
			/>
		<path class="st5" d="M49.5,148.8C61.3,139.5,191,44.9,196.5,44.9c11.5,3.8,160.6,104,167.7,110.3c1.8,2.3-18.7,87.1-19.2,92.2
			c-12.6-0.4-280.5-2.5-289.9-2.5C53.5,244.4,48.2,163.2,49.5,148.8L49.5,148.8z"/>
	</g>
	<g>
		<g>
			<path class="st6" d="M193.3,193.1c-0.7,20.8,7.2,28,1.3,48.5"/>
			<path class="st6" d="M286.3,192.4c-0.7,20.8,7.2,28,1.3,48.5"/>
			<path class="st6" d="M256.8,193.1c-0.7,20.8,7.2,28,1.3,48.5"/>
			<path class="st6" d="M224.1,193.1c-0.7,20.8,7.2,28,1.3,48.5"/>
			<path class="st6" d="M319.1,192.4c-0.7,20.8,7.2,28,1.3,48.5"/>
		</g>
		<path class="st7" d="M352.5,193.8c-58.8-2-133.7,3.9-165.1-5.9"/>
		<g>
			<path class="st8" d="M193.3,193.1c-0.7,20.8,7.2,28,1.3,48.5"/>
			<path class="st8" d="M286.3,192.4c-0.7,20.8,7.2,28,1.3,48.5"/>
			<path class="st8" d="M256.8,193.1c-0.7,20.8,7.2,28,1.3,48.5"/>
		</g>
		<g>
			<path class="st9" d="M187.4,193.1c-0.7,20.8,7.2,28,1.3,48.5"/>
			<path class="st9" d="M280.4,192.4c-0.7,20.8,7.2,28,1.3,48.5"/>
			<path class="st9" d="M250.9,193.1c-0.7,20.8,7.2,28,1.3,48.5"/>
			<path class="st9" d="M218.2,193.1c-0.7,20.8,7.2,28,1.3,48.5"/>
			<path class="st9" d="M313.2,192.4c-0.7,20.8,7.2,28,1.3,48.5"/>
			<path class="st9" d="M346.6,193.8c-58.8-2-133.7,3.9-165.1-5.9"/>
			<g>
				<path class="st10" d="M187.4,193.1c-0.7,20.8,7.2,28,1.3,48.5"/>
				<path class="st10" d="M280.4,192.4c-0.7,20.8,7.2,28,1.3,48.5"/>
			</g>
		</g>
	</g>
	
		<linearGradient id="SVGID_1_" gradientUnits="userSpaceOnUse" x1="-362.3489" y1="595.7003" x2="-361.3489" y2="594.7003" gradientTransform="matrix(16.017 0 0 -37.992 6092.7217 22798.6914)">
		<stop  offset="0" style="stop-color:#7A877D"/>
		<stop  offset="1" style="stop-color:#222F45"/>
	</linearGradient>
	<path class="st11" d="M289,166.8v38h16v-38H289z"/>
	<g>
		<path class="st12" d="M307.9,163.6c0,2.9,1,39.5,0.7,45.4c4.3,1,17.9,2.6,21,4c-0.5-13.4,1.1-45-0.3-53
			C325.6,161,310.5,163.2,307.9,163.6L307.9,163.6z"/>
		<path class="st13" d="M278.9,164.1c-0.6,0-0.3,1.5-0.3,2.2c0,10.8,0.5,35.4,0.3,42.7c-3.6,0-16.8,3.8-20,4.3
			c-0.3-5.8-1.6-47.6-0.3-52.7c5,2.3,15.5,4.3,17.4,4.3C276.7,165,277.6,165,278.9,164.1L278.9,164.1z"/>
	</g>
	<g>
		<g>
			<path class="st10" d="M250.9,193.1c-0.7,20.8,7.2,28,1.3,48.5"/>
			<path class="st10" d="M218.2,193.1c-0.7,20.8,7.2,28,1.3,48.5"/>
			<path class="st10" d="M313.2,192.4c-0.7,20.8,7.2,28,1.3,48.5"/>
			<path class="st10" d="M346.6,193.8c-58.8-2-133.7,3.9-165.1-5.9"/>
		</g>
		<g>
			<path class="st8" d="M224.1,193.1c-0.7,20.8,7.2,28,1.3,48.5"/>
			<path class="st8" d="M319.1,192.4c-0.7,20.8,7.2,28,1.3,48.5"/>
		</g>
		<path class="st14" d="M352.5,193.8c-58.8-2-133.7,3.9-165.1-5.9"/>
	</g>
	
		<linearGradient id="SVGID_2_" gradientUnits="userSpaceOnUse" x1="-377.8011" y1="596.5844" x2="-376.8011" y2="595.5844" gradientTransform="matrix(50.638 0 0 -49.656 19306.7227 29722.1992)">
		<stop  offset="0" style="stop-color:#7A877D"/>
		<stop  offset="1" style="stop-color:#222F45"/>
	</linearGradient>
	<path class="st15" d="M175.6,98.2v49.7h50.6V98.2H175.6z"/>
	<g>
		<path class="st16" d="M229.3,95.1c0,3.4,1.9,46.5,1.3,53.4c8.5,1.2,35.1,3.1,41.3,4.7c-1-15.7,2.1-52.9-0.7-62.3
			C264.1,91.9,234.4,94.5,229.3,95.1L229.3,95.1z"/>
		<path class="st17" d="M172.3,95.6c-1.2,0-0.7,1.8-0.7,2.5c0,12.7,1,41.6,0.7,50.3c-7.1,0-32.9,4.5-39.3,5.1
			c-0.7-6.9-3.2-56-0.7-62c9.8,2.6,30.4,5.1,34.1,5.1C168.2,96.6,169.9,96.6,172.3,95.6L172.3,95.6z"/>
	</g>
	<path class="st18" d="M218.8,190.5l1.3,19l84.5-0.7v-18.3H218.8z"/>
	<path class="st19" d="M220.1,186.6l1.3,19l84.5-0.7v-18.3H220.1z"/>
	<path class="st20" d="M239.8,185.9c-2.5,2.5-10.5,3.9-12.4,2c-1.9-1.9-4.6-9-4.6-12.5c7.8-3.9,15.5,2.6,23.6,2.6
		c3.8,1.3,0.6,1.3,2.6-0.7c0.6-1.7,0.4-4.6,2-4.6c0.8-2.5,1.3-3.8,1.3-6.6c2.1,1.4,5,4.6,7.2,4.6c0,1.3,8.2,0.7,7.2,0.7
		c-0.7,2.8-1.7,7.4,2.6,5.2c2.1-4.2,3.9-7.6,3.9-12.4c0,3.3,0.7,6.9,0.7,10.5c5.4,1.8,6.2-2.9,9.8-6.6c2.5-5,2-5.7,2-1.3
		c0,3.2-1.2,5.2,2,5.2c1.3-1.7,4.6-8.5,4.6-3.9c0,1.3-0.6,8.4,2.6,5.2c4.2-4.2,4.8-3.4,6.6-8.5c0.2-0.2,0.4-0.4,0.7-0.7
		c-0.9,3.4-1.7,7.4-3.3,10.5c-1.8,0.9-3.3,3.9-5.2,2c-3.5,0-0.7,7.6-0.7,10.5c0.7,7.5-11,0.7-8.5-2.6c-4.1,4.6-8.3,0.7-12.5,0.7
		c-9.2,5.6-8.7,1.3-12.5,1.3c-2.1,0-6.6,0.9-6.6,2.6c-4,0-7-1.3-11.1-1.3C241.5,187.6,241.3,187.4,239.8,185.9L239.8,185.9z"/>
	<g>
		<path class="st21" d="M230.5,166.4c0,1.3-3.9,3.3-5.2,4.7c-1.2,1.5-4.8,5.1-2.6,7.3c1.9,1,4.2,0.9,4.2,3.1
			c1.1,2.2-0.1,2.6,2.6,2.6c3.1,0,4.7-3.4,4.7-6.3c0.8-0.8,0.2-2.1,1.6-2.1c0.7-0.7,2.7-2.6,1.6-2.6c-0.9-1.8-3.6-1.2-3.6-2.6
			C232.5,169.5,231,167.4,230.5,166.4L230.5,166.4z"/>
		<path class="st21" d="M268.5,166.4c0,1.4-1.4,3.8-2.1,5.2c0,1.9,2.1,0.7,2.1,3.1c-0.7,0.4-5,3.6-2.1,3.6c2.5,1.3,3.2-0.1,4.7-1.6
			c1.1-1.1-0.4-6.3,1.6-6.3c3.1-3.1,0.9-1.1-0.5-2.6c-0.7,0-3.6-1.4-3.6,0C271.5,167.9,268.5,166.6,268.5,166.4L268.5,166.4z"/>
	</g>
	<g>
		<path class="st22" d="M233.1,161.2c0,1.3-3.9,3.3-5.2,4.7c-1.2,1.5-4.8,5.1-2.6,7.3c1.9,1,4.2,0.9,4.2,3.1
			c1.1,2.2-0.1,2.6,2.6,2.6c3.1,0,4.7-3.4,4.7-6.3c0.8-0.8,0.2-2.1,1.6-2.1c0.7-0.7,2.7-2.6,1.6-2.6c-0.9-1.8-3.6-1.2-3.6-2.6
			C235.1,164.3,233.6,162.2,233.1,161.2L233.1,161.2z"/>
		<path class="st22" d="M271.1,161.2c0,1.4-1.4,3.8-2.1,5.2c0,1.9,2.1,0.7,2.1,3.1c-0.7,0.4-5,3.6-2.1,3.6c2.5,1.3,3.2-0.1,4.7-1.6
			c1.1-1.1-0.4-6.3,1.6-6.3c3.1-3.1,0.9-1.1-0.5-2.6c-0.7,0-3.6-1.4-3.6,0C274.1,162.7,271.1,161.4,271.1,161.2L271.1,161.2z"/>
	</g>
	<path class="st21" d="M287.3,166.9c-1.9,0-4.1,1-5.2,2.1c-3.6,0-2.2,4.3-4.7,6.8c0,2.2,0.8,2.6,3.1,2.6c1.9,0.5,7.3,1.5,7.3-2.1
		c1.4-2.9,0.1-5.2,3.6-5.2c2.2-1.1,1.8-1.4-0.5-2.6C289.3,167.4,289.1,166.9,287.3,166.9L287.3,166.9z"/>
	<path class="st22" d="M289.9,161.7c-1.9,0-4.1,1-5.2,2.1c-3.6,0-2.2,4.3-4.7,6.8c0,2.2,0.8,2.6,3.1,2.6c1.9,0.5,7.3,1.5,7.3-2.1
		c1.4-2.9,0.1-5.2,3.6-5.2c2.2-1.1,1.8-1.4-0.5-2.6C291.9,162.2,291.7,161.7,289.9,161.7L289.9,161.7z"/>
	<path class="st21" d="M253.9,164.8c-2.3,0-4.2,2.1-6.8,2.1c-0.8,0.8-1.1,5.7-2.1,5.7c-0.7,1.3-1.3,4.2,0.5,4.2
		c1.9,0.6,1.5,0.6,0,2.1c-1.4,0.7-6,3.6-2.6,3.6c3.3,0,3.1-5.2,6.3-5.2c1.9-1.9,5.1-2.1,7.8-2.1c2.9-2.9-1.4-4-3.1-5.7
		c-0.5-0.5,1.1-1.1,2.1-2.1C257,166.4,256.1,165.9,253.9,164.8L253.9,164.8z"/>
	<path class="st22" d="M256.5,159.6c-2.3,0-4.2,2.1-6.8,2.1c-0.8,0.8-1.1,5.7-2.1,5.7c-0.7,1.3-1.3,4.2,0.5,4.2
		c1.9,0.6,1.5,0.6,0,2.1c-1.4,0.7-6,3.6-2.6,3.6c3.3,0,3.1-5.2,6.3-5.2c1.9-1.9,5.1-2.1,7.8-2.1c2.9-2.9-1.4-4-3.1-5.7
		c-0.5-0.5,1.1-1.1,2.1-2.1C259.6,161.2,258.7,160.7,256.5,159.6L256.5,159.6z"/>
	
		<linearGradient id="SVGID_3_" gradientUnits="userSpaceOnUse" x1="-375.6583" y1="596.5241" x2="-374.6583" y2="595.5241" gradientTransform="matrix(38.96 0 0 -48.637 14740.7803 29179.3105)">
		<stop  offset="0" style="stop-color:#7A877D"/>
		<stop  offset="1" style="stop-color:#222F45"/>
	</linearGradient>
	<path class="st23" d="M105.1,166.2v48.6h39v-48.6L105.1,166.2L105.1,166.2z"/>
	<g>
		<g>
			<path class="st24" d="M149.2,163.8c0,3.4,1.4,45.6,0.9,52.4c6,1.2,24.9,3,29.3,4.6c-0.7-15.4,1.5-51.9-0.5-61.2
				C173.9,160.7,152.8,163.3,149.2,163.8L149.2,163.8z"/>
			<path class="st25" d="M101.7,163.5c-0.9,0-0.5,1.8-0.5,2.5c0,12.5,0.7,40.9,0.5,49.3c-5.1,0-23.4,4.4-27.9,5
				c-0.5-6.7-2.3-54.9-0.5-60.8c7,2.6,21.6,5,24.2,5C98.8,164.5,100,164.5,101.7,163.5L101.7,163.5z"/>
		</g>
		<path class="st26" d="M340.2,85.6c-10.4-8.1-27.9-15.8-42.5-28.2c6.5-12.9,2.1-27.9,32.3-24.6c16.5,1.2,12,14.8,13.2,22.3
			C344.3,64.4,351.6,76.2,340.2,85.6L340.2,85.6z"/>
	</g>
	<g>
		<path class="st27" d="M200.6,96.9v50.4"/>
		<path class="st28" d="M225.5,122.5h-50.2"/>
		<path class="st27" d="M124,165.4v50.4"/>
		<path class="st29" d="M143.2,190.2h-38.3"/>
	</g>
</g>
</svg>
